PathFileType	4	(X/Y/Z)	50_2_14_p0_0-174_filt_butterworth.trc
DataRate	CameraRate	NumFrames	NumMarkers	Units	OrigDataRate	OrigDataStartFrame	OrigNumFrames
49.0	49.0	5	27	m	49.0	130	174
Frame#	Time	RHip			RKnee			RAnkle			RBigToe			RSmallToe			RHeel			LHip			LKnee			LAnkle			LBigToe			LSmallToe			LHeel			Neck			Head			Nose			RShoulder			RElbow			RWrist			RThumb			RIndex			RPinky			LShoulder			LElbow			LWrist			LThumb			LIndex			LPinky			
		X1	Y1	Z1	X2	Y2	Z2	X3	Y3	Z3	X4	Y4	Z4	X5	Y5	Z5	X6	Y6	Z6	X7	Y7	Z7	X8	Y8	Z8	X9	Y9	Z9	X10	Y10	Z10	X11	Y11	Z11	X12	Y12	Z12	X13	Y13	Z13	X14	Y14	Z14	X15	Y15	Z15	X16	Y16	Z16	X17	Y17	Z17	X18	Y18	Z18	X19	Y19	Z19	X20	Y20	Z20	X21	Y21	Z21	X22	Y22	Z22	X23	Y23	Z23	X24	Y24	Z24	X25	Y25	Z25	X26	Y26	Z26	X27	Y27	Z27	
130	2.653061224489796	0.3103626947766482	0.7094515119440786	0.5076351951774203	0.2702759210700262	0.7759134281429034	0.9006608936802097	0.2972088492176965	0.9507228847524328	1.3386034458636336	0.25365376034362624	0.8448917865472927	1.4124002834310931	0.3233272537044663	0.8415135928056441	1.4116492173366568	0.2860670099203251	1.0691447825965206	1.3957539479177337	0.10514799084781981	0.7623464597973209	0.5180048304370182	0.11377970085248054	0.805179778909978	0.9039385771758597	0.1055852975812113	1.0037088719146678	1.3342888285590135	0.10316206767336628	0.8468145260021551	1.3935701848744977	0.039146041012780575	0.8781433155706755	1.3848233850091047	0.12381355942352312	1.0569342185161883	1.39639170748127	0.19407601796599877	0.5785846729131676	0.006206028995054812	0.1736000083813063	0.4467943793968776	-0.21011587820017652	0.17672766249376332	0.396710513040943	-0.08472127820723294	0.34039536783541446	0.5554276428676046	0.09020423630286117	0.40876029513072476	0.6822285244197486	0.3489279964033548	0.3962325813905575	0.6814615641390959	0.615500901740086	0.34781984785963305	0.6760474282790059	0.7155857875879785	0.35730005754227245	0.6950418226891564	0.7419967859200054	0.39473229499724644	0.72679081016131	0.7435971142746995	0.0514544051684216	0.6149322908492738	0.1028737747514931	0.009049017090662373	0.7257649784547926	0.37072093041115306	0.009747039065391974	0.7130903326949234	0.6079893526000335	0.042646141521590436	0.7007684479208676	0.7029922284990384	0.016327151000864324	0.6966761248456605	0.7133907310287717	-0.022682928778317218	0.7572006961566282	0.7117098038199775
131	2.673469387755102	0.31335673133758496	0.7095317409724209	0.5099489376744377	0.26829737822377026	0.7726997852134032	0.901795093119101	0.2944027431803535	0.9457719521070692	1.3386555590414875	0.25392731326285084	0.8445378035501315	1.4125415252387936	0.3233436185883301	0.8418185932059924	1.4117030578576975	0.2844025485606714	1.0661087982171025	1.39568771486984	0.10678045511208376	0.761448788059766	0.51774620758946	0.11051980671032577	0.8132960466005712	0.902961208674028	0.10510857421701461	1.00390432634275	1.3356937719535806	0.10354767624844566	0.8365837062381283	1.3893076300650455	0.039025263614517955	0.8783075363465405	1.3837535416517235	0.1248196155819628	1.0586292375059616	1.397176995973544	0.19558613402837147	0.5731317443122443	0.00821728053923981	0.16481148396017786	0.44663825746665003	-0.2060941189000986	0.17584058038670294	0.39760583184544357	-0.07961712089704769	0.34168751086865407	0.5501358178151835	0.09093555501436319	0.4092098834772466	0.681942145619289	0.35159020685100684	0.39562860111590425	0.6867582837816579	0.6193194727015677	0.34656528344297255	0.6738613060697365	0.7186906683273262	0.3572678563921542	0.6949184630680822	0.7432812886057962	0.394473768890327	0.7261738242178809	0.7461242214328979	0.05358537712688098	0.6206377982377541	0.10914210731581424	0.011053982783125558	0.7191818589029562	0.3757210885539901	0.009817404221543263	0.7128924035889219	0.6079285059883792	0.042496469860461634	0.7015359395393181	0.7056282798760811	0.016438720333364153	0.6978258435750877	0.7169320424672178	-0.02273632812059112	0.7580594175058457	0.7122149996508653
132	2.693877551020408	0.3149571317432983	0.7126323319872556	0.5083125787738361	0.26638178335329743	0.7716356585705575	0.9036203939162887	0.2902106378282151	0.939062573139081	1.3387176318227376	0.25389903910743405	0.8415829327048656	1.4122392304516354	0.3232325321216475	0.8407924815035179	1.4113428135927855	0.27999217789838493	1.0619606596756879	1.3958871215871396	0.1085130081180359	0.759837905533787	0.5106120089650427	0.10494783972845922	0.8267382243581679	0.9045892062288979	0.10516169912123983	1.004223264164168	1.336013945969663	0.10347232187582073	0.8287248177256	1.3863042817782711	0.03889965470215041	0.8781528515632462	1.3819280419075273	0.12515789765690924	1.0594362097840766	1.397248861910477	0.19745016691382117	0.569425171866089	0.010159824609863522	0.15959527991367775	0.4465115881023073	-0.2027964917140567	0.1756397243444361	0.3984443369405898	-0.0752592054528061	0.34352877001962034	0.5468997604682092	0.09231834011507398	0.4091348720365237	0.6822328749617572	0.352775584300447	0.39511678567976244	0.6913629500923917	0.620920540661858	0.3448053498149395	0.6689373205395002	0.721139947987298	0.3573387842358622	0.6948407219010961	0.7456552110087069	0.394374874278331	0.7265006073011582	0.7487492038410046	0.05681006898003691	0.628472389768304	0.1163291432207186	0.014413448565725382	0.7105008001711871	0.38277996316433793	0.00979372669049568	0.7119242031775239	0.6085084386709225	0.04248929735778925	0.7016449813972738	0.7074449606578185	0.016673288785492957	0.697983336612217	0.7212043182595966	-0.021852049745407602	0.7583000346566148	0.7139300465678146
133	2.7142857142857144	0.31618880772452396	0.7145641682658832	0.503484939392331	0.26529275562394805	0.7726965238198948	0.907806394667594	0.28492804632121055	0.9354033199755564	1.3388527021013474	0.2529651401006712	0.8367639520326042	1.4108992537178535	0.32210551111244945	0.8369373966970769	1.4101141331997151	0.2738988973167445	1.0598481359956535	1.3961846634551707	0.10953410446587032	0.7586581968853474	0.5020242798386165	0.09958076599833311	0.8414547289102311	0.9073806857007155	0.10532065589416084	1.0063699140217743	1.3353992465743083	0.10196994438932304	0.8268567658698334	1.3855886987333075	0.0388659446866733	0.8778506740482146	1.380632524981025	0.1249181668871465	1.0615318653500478	1.3972332733750104	0.19950301979175672	0.570242621550727	0.01265338413368074	0.15707697157903833	0.446622664990194	-0.1998195859586624	0.17572110865260152	0.3988592758215847	-0.07282876530597907	0.345413133705533	0.5467935712953145	0.09422428515108183	0.40865102534754866	0.6818795841895637	0.35305836474826996	0.39473951530909596	0.6924347359656957	0.6216758953635945	0.34349783560895175	0.6651486762011738	0.723003641955126	0.35747092254450574	0.6948173616911207	0.7482555839981814	0.39438712160819356	0.7275734159135143	0.7505422052255017	0.0594270826120024	0.6352951882224992	0.12214242209104391	0.018800047169607634	0.7007030984253955	0.38917915802707825	0.0102000510288866	0.7085133819295332	0.6098378116381445	0.042555234369386186	0.7016652723412272	0.7089687834333356	0.017012748302362466	0.6964673972688535	0.7256522906291376	-0.021291692301790406	0.7582344417245206	0.7173536797828532
134	2.7346938775510203	0.3170161377505735	0.7141867553311231	0.4986353713569289	0.2651345516392607	0.7744707714448997	0.9122104648373655	0.28035897423860395	0.9364307330462578	1.3390402130457246	0.25138410351107093	0.8331646208247867	1.4090097722592347	0.3202406587290559	0.8310893051727821	1.4083190469424312	0.26946877812902964	1.0601123227048408	1.3961424025483127	0.11023562955506032	0.7563832443547394	0.4970981292602493	0.09666641863604446	0.8506898560372016	0.9089565603457804	0.10396694366541559	1.011708884833235	1.3346442346352854	0.09911038869410042	0.8286068705830834	1.3860003258025833	0.03885916676132124	0.8774388833761977	1.3802170648725152	0.12361674137220516	1.0678328694996226	1.397493157964976	0.2016402178937845	0.5755232943002564	0.016062793231704613	0.15566435778006943	0.44678453214120295	-0.19742248864940565	0.17576440299638624	0.39898383794037706	-0.07122802686951472	0.34662729088257727	0.5479079846397926	0.09631294818680342	0.40777182787401334	0.6828458807454337	0.3538819684761494	0.3939427474716206	0.68809897353409	0.6225565025934656	0.34219212000813237	0.6648898207043632	0.7246959646024389	0.357571837195952	0.6948946783013132	0.7506737563353802	0.39449529958958307	0.7271414687863539	0.7514801764510085	0.0610615371587309	0.6410573375818744	0.1251232143297944	0.024453658456983676	0.6929474854875901	0.3924170192713383	0.011698914997223536	0.7032334134779603	0.6111691088637228	0.04261822824001278	0.7016890606812058	0.7099450819863489	0.017424202204519252	0.6945932264487452	0.7288202688132189	-0.020740944453508294	0.7593896238589161	0.7204801259903283
